<?xml version="1.0" encoding="UTF-8"?><svg id="Layer_2" xmlns="http://www.w3.org/2000/svg" viewBox="0 0 277.66 66.7"><defs><style>.cls-1{fill:#fff;}</style></defs><g id="Layer_1-2"><g><path class="cls-1" d="M0,65.43V1.21H14.06c1.21,0,2.48,1.21,2.48,2.54v61.67H0Z"/><path class="cls-1" d="M62.16,28.47h20.9c1.64,0,2.61,1.33,2.61,2.91v33.2c-5.88,1.33-15.09,2.12-21.87,2.12-23.99,0-36.59-11.39-36.59-33.44C27.2,13.57,39.86,0,60.89,0c9.27,0,17.39,2.48,22.66,6l-6.48,11.09c-4.54-2-10.6-3.45-14.96-3.45-12.12,0-17.75,8.06-17.75,19.69,0,12.42,6.54,20.11,18.66,20.11,2.24,0,4.97-.06,7.15-.42v-11.33h-7.94v-13.21h-.06Z"/><path class="cls-1" d="M134.5,65.43l-7.63-17.69c-1.58-3.57-2.67-5.39-5.94-5.39h-6.66v23.08h-16.18V3.76c0-1.33,1.45-2.54,2.48-2.54h22.78c12.36,0,23.02,2.54,23.02,18.6,0,7.15-3.94,14.48-11.39,15.99,3.7,1.27,7.45,6,9.45,11.15l7.33,18.54h-17.27v-.06Zm-12.18-51.86h-8.06V29.69h8.06c4.85,0,8.6-2.61,8.6-8.66,0-6.24-3.76-7.45-8.6-7.45Z"/><path class="cls-1" d="M187.51,66.7c-21.02,0-32.17-14.84-32.17-33.44S166.48,0,187.51,0C207.2,0,218.34,14.84,218.34,33.26c.06,18.6-11.09,33.44-30.84,33.44Zm0-53.13c-8.66,0-14.84,6.18-14.84,19.69s6.18,19.87,14.84,19.87c7.45,0,13.51-6.18,13.51-19.87,0-13.51-6.06-19.69-13.51-19.69Z"/><path class="cls-1" d="M250.03,66.7c-10.84,0-20.96-3.88-25.45-6.97l7.33-12.96c4.06,2.48,12.06,6.3,19.39,6.3,4.18,0,9.39-.79,9.39-5.39,0-4.3-5.88-5.63-13.51-7.88-9.27-2.67-20.05-6.36-20.05-18.84C227.13,7.51,239.06,0,254.63,0,264.87,0,272.87,3.64,276.93,7.51l-9.03,10.12c-4.42-2.61-8.91-4.66-13.99-4.66-6.12,0-9.51,2.3-9.51,5.69s4.42,5.03,10,6.72c9.81,3.03,23.26,6.12,23.26,19.02-.06,13.21-10.66,22.29-27.63,22.29Z"/></g></g></svg>