<?xml version="1.0" encoding="UTF-8"?><svg id="Layer_1" xmlns="http://www.w3.org/2000/svg" viewBox="0 0 333.05 227.05"><defs><style>.cls-1{fill:#fff;}</style></defs><g><path class="cls-1" d="M32.38,53.86c-.16,1.49-.09,6.94,1.02,13.83,.17,1.04,.97,4.37,3.05,17.36,.17,1.04,.64,1.5,1.03,1.43q.26-.04,1.33-1.68c9.74-14.88,22.81-28.04,30.86-42.65,.72-1.32,.96-1.49,1.61-1.59,3.38-.54,4.45,.35,5.88,.12,.39-.06,3.49,1.84,3.97,4.83,.06,.39-.05,.54-.44,1.4-10.54,23.14-13.97,46.61-11.76,83.69,.16,2.64,.22,3.03-.43,3.13-.91,.15-1.99-.75-3.15-.56-.78,.12-.57,.62-1.35,.75-1.69,.27-4.41-.89-5.59-1.64-1.03-.63-1.18-.74-1.29-1.39-.15-.91,0-28.24,.15-32.27,.11-4.28,1.74-15.73,3.02-23.53-.08-.52-.21-.5-.6-.44-.26,.04-.37,.19-.59,.49-5.34,7.39-13.68,20.18-15.17,22.55-.96,1.49-1.09,1.51-1.48,1.57s-1.92-.36-4.86-.42c-2.27-.04-4.67-.05-6.45-2.03-1.29-1.39-3.47-5.84-4.62-11.38-.12-.78-.38-2.34-.65-4.03-.54-3.38-1.23-7.66-1.38-8.57-.06-.39-.23-.63-.49-.59-.39,.06-.48,.34-1.21,2.46-3.28,9.45-5.12,19.61-6.14,24.83-3.17,15.96-4.01,26.49-3.14,31.94,.15,.91-1.33,2.48-2.11,2.6-1.95,.31-1.74,1.61-2.78,1.78-1.04,.17-4.36-1.43-5.14-1.31-.91,.15-3.01-2.18-3.37-4.39-.77-4.81,2.2-9.55,2.5-12.66,2.52-26.65,13.61-53.87,18.9-77.37,.47-2.07,.64-2.63,1.03-2.7,1.3-.21,1.36,.18,3.61,.09,2.12-.07,4.65-.08,6.31,1.12,.6,.44,.95,.92,1.01,1.3,.35,2.21-.71,9.71-1.1,13.9Z"/><path class="cls-1" d="M112.13,116.61c-1.56,.25-2.88,.33-5.08-.12-3.02-.58-7.9-1.93-8.9-2.3-2.83-1.01-5.82-3.86-7.93-7.92-1.33-2.45-2.77-7.28-3.16-9.75-.19-1.17-.27-2.49-.04-4.39,1.51-13.83,8.51-26.68,16.69-38.78,1.83-2.69,6.6-7.05,12.96-8.07,3.51-.56,5.41-.33,8.15,.16,1.51,.29,4.61,2.19,5.45,7.39,.54,3.38-.43,6.46-1.49,9.83-.88,2.81-1.69,4.4-3.18,6.77-7.34,11.57-15.66,24.5-25.72,32.37-.59,.49-.68,.77-.61,1.16,.33,2.08,2.72,4.49,3.99,4.96,1.55,.55,2.89,.6,4.19,.39,2.21-.35,4.07-1.19,9.42-5.24,8.19-6.24,12.52-14.13,19.52-20.32,1.28-1.14,1.93-1.24,2.45-1.33,.78-.12,2.81,.88,3.01,2.18,.19,1.17,.08,1.32,.14,1.71,.08,.52,.21,1.3-.36,1.92-5.38,6.33-7.07,13.26-25.06,27.33-2.13,1.67-2.78,1.78-4.47,2.05Zm7.23-62.05c-.17-1.04-.25-1.56-1.03-1.43-1.04,.17-1.84,.96-2.54,1.61-1.28,1.14-1.22,.73-2.33,2.1-7.23,8.89-14.62,21-15.62,33.01,.08,.52,.23,.63,.36,.61,.26-.04,.5-.21,.85-.54,6.73-7.07,11.94-15.24,16.67-23.19,1.57-2.65,.99-2.96,2.26-5.83,.88-2.01,1.78-3.88,1.38-6.35Z"/><path class="cls-1" d="M192.55,46.56c.65-.1,2.62-.29,3.91,1.11,.32,.35,.34,.48,.38,.74,.08,.52-.09,1.08-.29,1.51-4.46,8.71-9.79,19.55-10.65,29.95-.33,3.78-.61,7.83,.04,11.85,.54,3.38,1.86,6.63,4.29,9.3,.17,.24,.34,.48,.39,.74,.04,.26-.27,1.64-2.44,2.26-.76,.25-1.6,.79-2.38,.92-1.95,.31-4.95-.14-6-1.7-2.29-3.5-3.42-7.18-4-10.82-.62-3.9-.46-6.19-.52-6.58-.08-.52-.1-.65-.62-.56-.52,.08-1.54,1.18-2.74,2.84l-5.97,7.62c-5.73,7.45-9.6,9.93-13.89,12.22-.74,.39-1.48,.77-1.99,.85-1.43,.23-3.13-.43-10.03-4.39-.73-.41-3.29-2.27-4.09-7.2-.69-4.29-.13-9.97,4.71-20.47,5.83-12.66,12.14-19,15.58-22.48,5.61-5.7,11.83-10.16,19.14-13.59,.87-.41,1.89-.7,2.79-.85,2.99-.48,5.81,.53,8.53,2.5,.75,.55,1.98,1.55,2.37,2.29,.73,1.22,2.08,2.2,3.51,1.97Zm-15.37,3c-11.17,8.45-19.63,17.14-25.6,27.29-4.39,7.5-7.45,15.85-6.85,19.62,.25,1.56,1.08,3.42,3.42,3.05,1.04-.17,3.8-2.07,5.78-4.66,10.27-13.24,22.51-24.13,27.15-37.53,.64-1.83,1.78-3.88,2.98-5.54,.33-.45,.46-1.27,.34-2.05-.15-.91-1.2-2.47-3.4-2.12-.39,.06-2.27,.76-3.82,1.94Z"/><path class="cls-1" d="M223.84,40.61c-.86,2.93-1.76,8.14-1.7,8.53,.04,.26,.32,.35,.58,.31,.39-.06,1.91-.57,3.16-1.04,5.53-2.09,12.49-6,16.36-9.29,.59-.49,.94-.82,1.32-.88,2.21-.35,6.66,.8,6.91,2.36,.27,1.69-.83,4-3.5,5.62-3.28,1.99-3.21,2.38-5.41,3.67-5.97,3.49-16.61,7.73-19.19,9.07-1.11,.58-1.78,1.35-2.16,2.34-.75,1.99-1,4.56-1.21,6.59-.16,1.49-.73,2.92-.76,4.39-.09,4.41-2.74,16.16-2.48,22.78,.06,1.19-.7,4.78-2.37,5.98-.48,.34-1.37,.62-1.89,.7-1.56,.25-3.74-.07-4.91-.68-1.16-.61-1.74-1.72-1.93-2.89-.17-1.04-.31-2.75-.11-3.98,1.71-10.13,2.23-21.81,4.78-32.47,.07-.41,.16-.69,.11-.95-.04-.26-.21-.5-.77-.68-5.05-1.59-6.37-4.84-9.76-6.83-.73-.42-.84-1.06-.9-1.45-.15-.91,.33-1.25,1.29-1.94,.72-.51,1.32-.88,2.49-1.07,2.86-.46,6.44,1.1,8.78,.72,1.17-.19,1.84-.96,1.92-2.17,.16-1.49,.5-3.54,1.1-6.44,1.85-8.42,3.73-19.12,6.62-29.31,.51-1.81,.64-1.83,1.16-1.92,2.08-.33,2.23-1.02,3.53-1.23,1.17-.19,3.44-.15,5.1,.25,.69,.16,1.25,.33,1.31,.72,.04,.26,.1,.65,.1,1.45-.06,10.4-4.88,20.23-7.62,29.73Z"/><path class="cls-1" d="M290.82,25.46c-.31-1.95-.3-4.35-.31-6.08,.55-11.54,6.86-17.89,13.35-18.93,2.47-.4,4.81-.77,6.92-.04,1.81,.51,2.54,1.72,3.71,2.34,2.65,1.57,4.69,3.51,5.15,6.37,.44,2.73-.01,5.73-.67,9.97-.63,3.56-4.73,9.55-11.27,18.59-.65,.9-.96,1.49-.84,2.27,.04,.26,.25,.76,.85,2,3.03,6.44,5.88,11.71,8.97,17.75,.58,1.11,.84,1.06,1.1,1.02,.26-.04,.61-.36,1.28-1.14,1.7-1.87,2.33-2.91,3.35-4,1.46-1.7,2.39-2.52,3.81-3.67,1.74-1.61,2.37-1.85,3.41-2.01,1.17-.19,1.43-.23,2.01,.88,.58,1.11,.79,1.61,1.19,4.07,.62,3.9-.03,5.6-2.53,7.47-1.89,1.5-1.44,1.83-6.11,5.91-1.28,1.14-1.5,1.44-1.4,2.09,.06,.39,.15,.91,.51,1.52,1.28,2.19,2.27,4.17,3.72,6.6,.9,1.46,1.28,2.19,1.39,2.84,.1,.65-.35,1.12-.74,1.18-1.17,.19-2.59-.38-3.76-.19-.65,.1-.31,.58-1.73,.81-2.08,.33-4.56-1-4.83-1.89-.62-1.37-1.39-2.04-1.99-3.28-.56-.98-.9-1.46-1.42-1.37-.39,.06-.89,.28-1.71,.94-2.5,1.87-5.52,3.81-7.38,4.65-2.62,1.09-8.67,3.26-11.01,3.63-3.25,.52-4.98,.53-7.03,.19-3.95-.56-5.88-4.25-7.86-5.8-1.23-1-2.71-2.76-3.15-5.49-.23-1.43-.34-3.81,.27-5.77,2.34-7.84,5.92-12.94,10.52-19.14,2.16-3.14,7.32-9.17,7.74-9.9,.42-.73,.35-1.12,.25-1.77-2.96-7.65-3.65-11.94-3.75-12.59Zm-1.19,39.09c-1.05,1.77-3.28,6.12-2.72,9.63,.35,2.21,2.32,2.83,5.18,2.37,2.08-.33,8.25-2.52,15.72-7.45,1.45-.9,1.56-1.05,1.46-1.7-.04-.26-.41-.87-1.02-2.23l-7.57-14.77c-.58-1.11-.71-1.09-.97-1.04-.39,.06-.74,.38-4.14,4.93-2.38,3.45-4.5,7.65-5.94,10.28Zm19.57-46.57c.73-2.12,.69-3.98,.96-4.82,.33-1.25,.64-2.63,.48-3.67-.23-1.43-1.33-2.45-2.62-2.24-.78,.12-4.46,1.25-5.91,4.68-1.23,3.13-2.95,5.67-2.12,10.87,.31,1.95,.65,3.23,1.24,5.26,.34,1.28,.53,1.65,.92,1.58s.5-.21,1.15-1.12c2.51-3.47,4.74-7.02,5.9-10.54Z"/></g><g><path class="cls-1" d="M163.71,138.95q.27,1.69-.45,2.2c-1.54,1.18-3.02,1.95-5.23,2.3-1.17,.19-1.89-2.63-6.56-1.88-2.86,.46-5.4,2.06-8.32,2.93-5.35,1.53-9.97,4.26-14.74,6.1-1.13,.45-1.22,1.53-1.1,2.31,.1,.65,.23,1.43,.05,1.99-2.69,8.16-5.72,15.84-6.51,24.22,.08,.52,.36,.61,1.01,.5,6.74-2.81,13.44-5.09,21.24-7.94,1.26-.47,1.76-.68,2.41-.79,.52-.08,1.49,.16,2.46,.4,4.99,1.2,5.65,2.02,5.97,3.97,.23,1.43-.51,1.81-1.14,2.05-10.82,4-22.04,7.93-32.65,12.43q-1,.43-1.35,1.55c-1.85,5.89-1.35,12.34-2.83,18.04-.33,1.25-.51,1.81-.49,2.74-.03,1.47-.34,5.38,.27,9.15,.42,2.6,.64,2.3,.82,3.46,.23,1.43-1.01,2.03-1.53,2.11-3.38,.54-6.25,.07-8.95-.96-.99-.37-1.06-.76-1.16-1.41-1.31-8.18,.33-17.9,1.3-25.92,.11-.95,.07-1.21,0-1.6-.1-.65-.99-1.17-2.16-.99-2.34,.38-4.58-1.13-4.91-3.21-.06-.39-1.01-1.3-1.13-2.08-.06-.39,.05-.54,.65-.91,3.17-1.84,5.62-2.37,8.22-3.58,.87-.41,.93-.82,1.11-1.38,2.02-8.18,3.87-17.41,5.8-25.31q-.1-.65-.62-.57c-1.3,.21-9.6,6.6-11.55,6.92-2.34,.38-5.61-2.57-5.77-3.6-.27-1.69,.84-3.07,1.13-4.58,.16-.69,.26-.84,.76-1.05,7.37-3.05,12.58-6.28,19.03-10.11,1.58-.92,2.56-1.48,3.56-1.9,9.48-4.05,20.17-9.63,29.91-11.19,3.51-.56,8.2-1.18,12.46,2.93,.47,.46,.79,1.6,.96,2.64Z"/><path class="cls-1" d="M183.56,210.37c-2.33,2.91-6.53,7.44-12.38,8.38-3.9,.62-9.19-4.12-11.39-8.7-.81-1.74-1.23-3.53-1.52-5.35-.52-3.25-.46-6.19,.39-10.85,.51-2.61,.68-4.91,1.17-6.85,2.51-10.13,4.77-20.08,7.97-30.86,.86-2.94,3.46-4.15,5.93-4.55,1.3-.21,3.03-.22,4.06,.41,.73,.42,1.19,.74,1.37,1.91,1.1,6.88-3.7,10.99-5.67,17.83-1.44,5.16-3.66,14.58-4.71,19.67-1.27,6.2-1.39,11.28-1.08,13.23,.19,1.17,.8,4.14,3,3.78,2.86-.46,4.16-1.47,8.77-5.94,2.76-2.71,3.57-3.5,5.65-3.84,1.04-.17,2.51-.14,3.39,.39,.88,.52,.99,1.17,1.07,1.69,.25,1.56-.64,2.64-1.52,3.84l-4.53,5.79Zm5.05-83.94c.12,.78,.14,1.71-.27,2.44-1.88,3.23-4.43,7.24-7.29,7.7-2.6,.42-4.77-.7-5.61-1.76-.86-1.19-1.39-2.84-1.62-4.27-.29-1.82-.13-4.11,.81-5.73,1.05-1.77,3.28-2.79,6.01-3.23,2.08-.33,4.65-.08,5.73,.81,1.53,1.22,2.04,2.74,2.25,4.04Z"/><path class="cls-1" d="M224.28,155.21c.79,4.94-.59,8.76-2.04,11.39-.83,1.46-.94,1.62-1.59,1.72-1.43,.23-3.78-.33-4.82-.96-1.32-.72-2.3-1.9-2.62-3.84-.04-.26,.03-.67,.22-1.1,.86-2.14,1.6-4.12,1.25-6.33-.17-1.04-.81-2.54-1.47-3.36-.66-.83-2.11-1.53-3.15-1.36-.91,.15-5.7,8.51-5.78,14.65,.02,.93,.03,1.86,.28,3.42,.12,.78,1.71,6.52,2.24,8.17,2.73,9.55,8.05,23.62,8.91,28.95,.17,1.04-.23,1.9-.66,2.5-1.96,2.71-3.93,5.43-7.43,5.99-1.17,.19-2.64,.16-3.33,0-9.13-2.13-16.32-7.91-21.75-14.36-.49-.59-1.03-1.43-1.09-1.82-.31-1.95,1.18-5.12,3.91-5.56,2.6-.42,3.81-.34,5.23,1.03,3.63,3.55,5.98,8.23,10.44,11.12,1.49,.96,2.18,1.12,2.83,1.01,.78-.12,1.22-.73,1.13-1.25s-.12-.78-1.3-3.92c-3.19-8.28-8.66-27.39-9.07-29.99-.56-3.51-.19-11.16,2.13-16.6,2.81-6.58,7.76-9.77,10.23-10.17,7.14-1.15,10.29,.21,13.48,2.63,2.13,1.66,3.41,5.45,3.82,8.05Z"/><path class="cls-1" d="M273.95,204.93c-.78,.12-1.71,.14-3.91-.3-5.23-1.03-7.97-4.85-8.99-11.21-.65-4.03-.64-8.96,.13-14.94s1.71-10.13,2.66-14.15c.24-.97,.31-1.38,.27-1.64-.02-.13-.17-.24-.3-.22-.26,.04-.72,.51-1.46,1.7-7.21,11.55-13.75,28.05-19.98,38.24q-.63,1.03-1.22,1.53c-1.17,.99-2.85,2.19-4.67,2.48-.65,.1-4.92-.81-7.34-2.55-.45-.33-.69-.96-.75-1.35-.23-1.43,.44-1.4,.61-3.69,1.53-21.16,9.16-40.91,14.71-60.31,.68-2.38,.95-3.22,1.41-4.49,4.14-11.59,8.2-21.96,12.52-35.71,.53-1.68,1.79-2.15,3.08-2.36,1.3-.21,2.12-.07,2.77-.18,1.17-.19,2.74,.49,3.95,1.36,1.05,.76,1.42,1.37,1.69,3.06,.54,3.38-1.85,5.89-4.56,10.59-.94,1.62-1.1,2.31-1.91,3.9-9.11,17.98-15.12,46.12-21.55,68.34-.69,2.38-.77,2.66-.75,2.79,.02,.13,.04,.26,.3,.22,.13-.02,.24-.17,.74-1.19,8.17-16.36,15.86-29.05,23.69-40.84,1.4-2.09,1.81-2.82,3.16-3.57,1.11-.58,2.23-1.02,2.88-1.13,1.3-.21,3.85-.08,4.95,.14,.97,.24,2.2,1.25,2.34,2.15,.67,4.16-.91,7.61-2.23,11.02-1.32,3.41-1.46,5.83-2.11,8.46-2.17,8.88-3.71,20.05-2.3,28.88,1,6.23,2.51,7.33,4.62,8.05,.84,.26,2.29,.17,3.37,.26,.54,.05,1.01,.5,1.08,.89,.08,.52-.22,1.1-.38,1.79-.24,.97-1.31,1.81-2.18,2.21-1.5,.64-2.69,1.5-4.38,1.77Z"/></g></svg>