<?xml version="1.0" encoding="UTF-8"?><svg id="Layer_2" xmlns="http://www.w3.org/2000/svg" viewBox="0 0 106.1 40.96"><defs><style>.cls-1{fill:#fff;}.cls-2{fill:#db2121;}</style></defs><g id="Layer_1-2"><path class="cls-2" d="m100.55,0H5.55C2.48,0,0,2.48,0,5.55v18.46c0,3.07,2.48,5.55,5.55,5.55h78.33l10.82,11.4v-11.4h5.85c3.07,0,5.55-2.48,5.55-5.55V5.55c0-3.07-2.48-5.55-5.55-5.55Z"/><path class="cls-1" d="m14.75,19.13v-8.87h1.28l2.91,7.82h.02l2.86-7.82h1.27v8.87h-.84v-7.91h-.02l-2.91,7.91h-.79l-2.92-7.91h-.02v7.91h-.84Z"/><path class="cls-1" d="m25.39,16.12c0,.34.05.67.14.98.09.31.22.57.4.8.18.23.4.41.67.54.27.14.58.2.94.2.48,0,.9-.13,1.24-.38.34-.25.57-.62.69-1.08h.83c-.09.3-.21.59-.36.84-.15.26-.33.48-.55.68-.22.19-.48.34-.79.45-.3.11-.66.16-1.06.16-.51,0-.95-.09-1.32-.26s-.67-.41-.91-.71-.41-.65-.53-1.06c-.11-.41-.17-.84-.17-1.31s.07-.91.2-1.32c.14-.41.33-.77.58-1.08.25-.31.56-.55.92-.73.36-.18.77-.27,1.23-.27.88,0,1.57.3,2.07.91.5.6.75,1.48.74,2.63h-4.95Zm4.16-.62c0-.31-.04-.61-.13-.88-.09-.28-.21-.51-.38-.71s-.38-.36-.63-.48c-.25-.12-.55-.18-.87-.18s-.62.06-.87.18c-.25.12-.46.29-.64.49-.18.21-.32.44-.43.71-.11.27-.18.56-.21.86h4.16Z"/><path class="cls-1" d="m31.79,19.13v-8.87h.74v3.38c.3-.31.6-.57.92-.76s.7-.3,1.14-.3c.39,0,.76.07,1.1.2.34.14.62.37.85.71.16.23.25.47.28.71s.04.49.04.76v4.18h-.74v-4.16c0-.57-.13-1.01-.38-1.29-.25-.29-.68-.43-1.27-.43-.23,0-.44.04-.63.1-.19.07-.36.16-.51.28-.15.11-.28.25-.39.39-.11.15-.19.3-.25.47-.07.21-.12.4-.14.59-.02.19-.02.39-.02.62v3.44h-.74Z"/><path class="cls-1" d="m39.41,19.13h-.74v-6.38h.74v1.2h.02c.21-.51.47-.86.79-1.07.32-.2.75-.3,1.29-.3v.8c-.42,0-.76.06-1.03.2s-.49.33-.65.57c-.16.24-.27.52-.33.84s-.09.66-.09,1.02v3.13Z"/><path class="cls-1" d="m46.62,16.12c0,.34.05.67.14.98.09.31.22.57.4.8.18.23.4.41.67.54.27.14.58.2.94.2.48,0,.9-.13,1.24-.38.34-.25.57-.62.69-1.08h.83c-.09.3-.21.59-.36.84-.15.26-.33.48-.55.68-.22.19-.48.34-.79.45-.3.11-.66.16-1.06.16-.51,0-.95-.09-1.32-.26s-.67-.41-.91-.71-.41-.65-.53-1.06c-.11-.41-.17-.84-.17-1.31s.07-.91.2-1.32c.14-.41.33-.77.58-1.08.25-.31.56-.55.92-.73.36-.18.77-.27,1.23-.27.88,0,1.57.3,2.07.91.5.6.75,1.48.74,2.63h-4.95Zm4.16-.62c0-.31-.04-.61-.13-.88-.09-.28-.21-.51-.38-.71s-.38-.36-.63-.48c-.25-.12-.55-.18-.87-.18s-.62.06-.87.18c-.25.12-.46.29-.64.49-.18.21-.32.44-.43.71-.11.27-.18.56-.21.86h4.16Z"/><path class="cls-1" d="m53.79,19.13h-.74v-6.38h.74v1.2h.02c.21-.51.47-.86.79-1.07.32-.2.75-.3,1.29-.3v.8c-.42,0-.76.06-1.03.2s-.49.33-.65.57c-.16.24-.27.52-.33.84s-.09.66-.09,1.02v3.13Z"/><path class="cls-1" d="m56.48,13.37v-.62h.95v-1.01c0-.51.1-.91.31-1.21.21-.3.55-.44,1.05-.44.11,0,.22,0,.32.01.1,0,.2.02.3.04v.68c-.16-.04-.31-.06-.44-.06-.19,0-.34.04-.44.1-.11.07-.18.16-.23.28-.05.11-.08.24-.09.39-.01.14-.02.29-.02.44v.79h1.23v.62h-1.23v5.77h-.74v-5.77h-.95Z"/><path class="cls-1" d="m63.47,15.41c.14-.02.31-.04.5-.07.19-.03.35-.08.47-.14s.2-.15.23-.29c.03-.14.04-.26.04-.38,0-.38-.12-.69-.36-.93-.24-.24-.65-.36-1.23-.36-.25,0-.49.02-.7.07s-.4.12-.56.23-.29.26-.39.44-.17.42-.2.7h-.75c.02-.38.11-.7.26-.97.15-.27.34-.48.57-.65.23-.17.51-.29.81-.37.31-.08.63-.12.98-.12.32,0,.62.04.91.1.28.07.53.18.74.33s.37.36.49.61.18.57.18.94v3.47c0,.29.05.47.15.55.1.08.31.06.62-.06v.58c-.06.02-.14.04-.25.07-.11.03-.22.05-.33.05-.12,0-.23-.01-.33-.04-.12-.02-.22-.06-.3-.12s-.13-.14-.18-.22-.08-.18-.09-.28c-.02-.1-.02-.21-.02-.33-.31.34-.67.61-1.07.79-.4.18-.84.27-1.31.27-.28,0-.55-.04-.81-.11-.26-.07-.49-.19-.68-.34-.2-.16-.35-.35-.47-.57-.12-.23-.17-.49-.17-.81,0-1.08.74-1.72,2.23-1.92l1.02-.14Zm1.24.37c-.31.13-.63.22-.95.26-.32.04-.64.07-.96.1-.57.04-1.01.17-1.32.38s-.47.54-.47.97c0,.2.04.37.12.51s.18.26.31.36c.13.09.28.16.44.21.17.05.34.07.51.07.3,0,.58-.04.86-.11.28-.07.53-.19.75-.34.22-.15.39-.35.52-.58s.2-.51.2-.83v-1Z"/><path class="cls-1" d="m67.39,19.13v-8.87h.74v3.38c.3-.31.6-.57.92-.76s.7-.3,1.14-.3c.39,0,.76.07,1.1.2.34.14.62.37.85.71.16.23.25.47.28.71s.04.49.04.76v4.18h-.74v-4.16c0-.57-.13-1.01-.38-1.29-.25-.29-.68-.43-1.27-.43-.23,0-.44.04-.63.1-.19.07-.36.16-.51.28-.15.11-.28.25-.39.39-.11.15-.19.3-.25.47-.07.21-.12.4-.14.59-.02.19-.02.39-.02.62v3.44h-.74Z"/><path class="cls-1" d="m75.02,19.13h-.74v-6.38h.74v1.2h.02c.21-.51.47-.86.79-1.07.32-.2.75-.3,1.29-.3v.8c-.42,0-.76.06-1.03.2s-.49.33-.65.57c-.16.24-.27.52-.33.84s-.09.66-.09,1.02v3.13Z"/><path class="cls-1" d="m78.8,16.12c0,.34.05.67.14.98.09.31.22.57.4.8.18.23.4.41.67.54.27.14.58.2.94.2.48,0,.9-.13,1.24-.38.34-.25.57-.62.69-1.08h.83c-.09.3-.21.59-.36.84-.15.26-.33.48-.55.68-.22.19-.48.34-.79.45-.3.11-.66.16-1.06.16-.51,0-.95-.09-1.32-.26s-.67-.41-.91-.71-.41-.65-.53-1.06c-.11-.41-.17-.84-.17-1.31s.07-.91.2-1.32c.14-.41.33-.77.58-1.08.25-.31.56-.55.92-.73.36-.18.77-.27,1.23-.27.88,0,1.57.3,2.07.91.5.6.75,1.48.74,2.63h-4.95Zm4.16-.62c0-.31-.04-.61-.13-.88-.09-.28-.21-.51-.38-.71s-.38-.36-.63-.48c-.25-.12-.55-.18-.87-.18s-.62.06-.87.18c-.25.12-.46.29-.64.49-.18.21-.32.44-.43.71-.11.27-.18.56-.21.86h4.16Z"/><path class="cls-1" d="m85.93,19.13h-.74v-6.38h.74v.89c.3-.31.6-.57.92-.76s.7-.3,1.14-.3c.39,0,.76.07,1.1.2.34.14.62.37.85.71.16.23.25.47.28.71s.04.49.04.76v4.18h-.74v-4.16c0-.57-.13-1.01-.38-1.29-.25-.29-.68-.43-1.27-.43-.23,0-.44.04-.63.1-.19.07-.36.16-.51.28-.15.11-.28.25-.39.39-.11.15-.19.3-.25.47-.07.21-.12.4-.14.59-.02.19-.02.39-.02.62v3.44Z"/></g></svg>