<?xml version="1.0" encoding="utf-8"?>
<!-- Generator: Adobe Illustrator 27.4.0, SVG Export Plug-In . SVG Version: 6.00 Build 0)  -->
<svg version="1.1" id="Layer_2_00000034768527438595650430000018347025950963299984_"
	 xmlns="http://www.w3.org/2000/svg" xmlns:xlink="http://www.w3.org/1999/xlink" x="0px" y="0px" viewBox="0 0 142.8 33.7"
	 style="enable-background:new 0 0 142.8 33.7;" xml:space="preserve">
<style type="text/css">
	.st0{fill:#FFFFFF;}
</style>
<g id="Layer_1-2_00000099644386620623883250000014140728639497190793_">
	<path class="st0" d="M0,12.5v-1L8,1H0.7V0h8.8v1l-8,10.5h8.1v1L0,12.5L0,12.5z"/>
	<path class="st0" d="M17.5,3.5h1v9h-1v-1.2c-0.1,0.2-0.3,0.3-0.5,0.5s-0.4,0.3-0.6,0.5s-0.5,0.3-0.8,0.4c-0.3,0.1-0.6,0.1-1.1,0.1
		c-0.6,0-1.1-0.1-1.5-0.2c-0.4-0.2-0.7-0.4-1-0.7c-0.2-0.3-0.4-0.6-0.5-1.1c-0.1-0.4-0.2-0.8-0.2-1.3V3.5h1.1v5.9
		c0,0.8,0.2,1.4,0.5,1.8c0.4,0.4,0.9,0.6,1.8,0.6c0.4,0,0.8-0.1,1.2-0.2s0.6-0.4,0.9-0.7s0.4-0.7,0.5-1.1c0.1-0.4,0.2-0.9,0.2-1.4
		C17.5,8.4,17.5,3.5,17.5,3.5z"/>
	<path class="st0" d="M28,3.5h1v8.1c0,0.6-0.1,1.2-0.2,1.7c-0.1,0.6-0.3,1-0.6,1.4c-0.3,0.4-0.7,0.8-1.3,1c-0.5,0.2-1.2,0.4-2.1,0.4
		c-0.7,0-1.2-0.1-1.7-0.2s-0.9-0.4-1.2-0.6s-0.5-0.5-0.7-0.8c-0.2-0.3-0.2-0.6-0.2-0.9h1.1c0.1,0.3,0.2,0.6,0.4,0.8
		c0.2,0.2,0.4,0.4,0.6,0.5c0.2,0.1,0.5,0.2,0.8,0.2c0.3,0.1,0.6,0.1,0.9,0.1c0.7,0,1.3-0.1,1.7-0.4s0.8-0.6,1-1
		c0.2-0.4,0.4-0.8,0.4-1.3c0.1-0.5,0.1-1,0.1-1.5c-0.3,0.6-0.8,1-1.4,1.3s-1.2,0.4-1.8,0.4c-0.7,0-1.3-0.1-1.8-0.4s-0.9-0.6-1.2-1.1
		c-0.3-0.4-0.6-0.9-0.7-1.5S20.8,8.6,20.8,8c0-0.7,0.1-1.3,0.2-1.9s0.4-1.1,0.7-1.5c0.3-0.4,0.8-0.8,1.3-1s1.1-0.4,1.9-0.4
		c0.3,0,0.6,0,0.9,0.1s0.6,0.2,0.9,0.3c0.3,0.2,0.5,0.3,0.8,0.6c0.2,0.2,0.4,0.5,0.6,0.8h0L28,3.5L28,3.5z M28,8.1
		C28,7.5,28,7,27.8,6.5c-0.1-0.5-0.3-0.9-0.6-1.2c-0.3-0.3-0.6-0.6-1-0.8S25.5,4.2,25,4.2c-0.4,0-0.9,0.1-1.2,0.2s-0.7,0.4-1,0.7
		c-0.3,0.3-0.5,0.7-0.6,1.1s-0.2,0.9-0.2,1.5c0,0.6,0,1.1,0.1,1.6c0.1,0.5,0.3,0.9,0.6,1.3s0.6,0.7,1,0.9c0.4,0.2,0.9,0.3,1.4,0.3
		c0.5,0,0.9-0.1,1.3-0.3c0.4-0.2,0.7-0.5,1-0.8s0.5-0.7,0.6-1.2C28,9.1,28,8.6,28,8.1L28,8.1z"/>
	<path class="st0" d="M42.7,3.5h1v9h-1v-1.2c-0.1,0.2-0.3,0.3-0.5,0.5s-0.4,0.3-0.6,0.5s-0.5,0.3-0.8,0.4c-0.3,0.1-0.7,0.1-1,0.1
		c-0.6,0-1.1-0.1-1.5-0.2s-0.7-0.4-1-0.7c-0.2-0.3-0.4-0.6-0.5-1.1c-0.1-0.4-0.2-0.8-0.2-1.3V3.5h1v5.9c0,0.8,0.2,1.4,0.5,1.8
		c0.4,0.4,1,0.6,1.8,0.6c0.4,0,0.8-0.1,1.2-0.2s0.6-0.4,0.9-0.7s0.4-0.7,0.5-1.1s0.2-0.9,0.2-1.4V3.5z"/>
	<path class="st0" d="M47.1,12.5h-1v-9h1v1.4h0c0.3-0.5,0.7-0.9,1.2-1.2s1-0.4,1.6-0.4c0.4,0,0.8,0,1.1,0.1c0.3,0.1,0.5,0.2,0.7,0.4
		s0.4,0.3,0.5,0.6c0.1,0.2,0.2,0.4,0.3,0.7c0.3-0.6,0.7-1,1.2-1.3c0.5-0.3,1.1-0.4,1.7-0.4c0.6,0,1.1,0.1,1.5,0.3
		c0.4,0.2,0.7,0.5,0.8,0.8c0.2,0.3,0.3,0.7,0.4,1.1c0.1,0.4,0.1,0.9,0.1,1.3v5.7h-1V6.3c0-0.7-0.1-1.2-0.4-1.5s-0.8-0.6-1.5-0.6
		c-0.4,0-0.8,0.1-1.1,0.2c-0.3,0.2-0.7,0.4-0.9,0.8c-0.1,0.2-0.2,0.3-0.3,0.5s-0.1,0.4-0.2,0.6c0,0.2-0.1,0.4-0.1,0.7
		c0,0.2,0,0.4,0,0.6v4.9h-1V6.3c0-0.7-0.1-1.2-0.4-1.5s-0.8-0.6-1.5-0.6c-0.4,0-0.8,0.1-1.1,0.2c-0.3,0.2-0.7,0.4-0.9,0.8
		c-0.1,0.2-0.2,0.3-0.3,0.5s-0.1,0.4-0.2,0.6c0,0.2-0.1,0.4-0.1,0.7c0,0.2,0,0.4,0,0.6L47.1,12.5L47.1,12.5z"/>
	<path class="st0" d="M64.9,12.5v-1l8-10.5h-7.3V0h8.8v1l-8,10.5h8.1v1L64.9,12.5L64.9,12.5z"/>
	<path class="st0" d="M82.3,3.5h1.1v9h-1.1v-1.2c-0.1,0.2-0.3,0.3-0.5,0.5s-0.4,0.3-0.6,0.5c-0.2,0.1-0.5,0.3-0.8,0.4
		c-0.3,0.1-0.7,0.1-1.1,0.1c-0.6,0-1.1-0.1-1.5-0.2c-0.4-0.2-0.7-0.4-1-0.7c-0.2-0.3-0.4-0.6-0.5-1.1c-0.1-0.4-0.2-0.8-0.2-1.3V3.5
		h1.1v5.9c0,0.8,0.2,1.4,0.5,1.8c0.4,0.4,0.9,0.6,1.8,0.6c0.4,0,0.8-0.1,1.2-0.2c0.3-0.2,0.6-0.4,0.9-0.7s0.4-0.7,0.5-1.1
		s0.2-0.9,0.2-1.4C82.3,8.4,82.3,3.5,82.3,3.5z"/>
	<path class="st0" d="M92.9,3.5h1.1v8.1c0,0.6-0.1,1.2-0.2,1.7c-0.1,0.6-0.3,1-0.7,1.4c-0.3,0.4-0.7,0.8-1.3,1
		c-0.6,0.2-1.2,0.4-2.1,0.4c-0.7,0-1.2-0.1-1.7-0.2c-0.5-0.2-0.9-0.4-1.2-0.6c-0.3-0.3-0.5-0.5-0.7-0.8c-0.2-0.3-0.2-0.6-0.2-0.9H87
		c0.1,0.3,0.2,0.6,0.4,0.8c0.2,0.2,0.4,0.4,0.6,0.5c0.2,0.1,0.5,0.2,0.8,0.2c0.3,0.1,0.6,0.1,0.9,0.1c0.7,0,1.3-0.1,1.7-0.4
		s0.8-0.6,1-1c0.2-0.4,0.4-0.8,0.4-1.3c0.1-0.5,0.1-1,0.1-1.5c-0.3,0.6-0.8,1-1.4,1.3s-1.2,0.4-1.8,0.4c-0.7,0-1.3-0.1-1.8-0.4
		s-0.9-0.6-1.2-1.1c-0.3-0.4-0.6-0.9-0.7-1.5c-0.2-0.6-0.2-1.2-0.2-1.8c0-0.7,0.1-1.3,0.2-1.9s0.4-1.1,0.7-1.5
		c0.3-0.4,0.8-0.8,1.3-1s1.1-0.4,1.9-0.4c0.3,0,0.6,0,0.9,0.1s0.6,0.2,0.9,0.3c0.3,0.2,0.6,0.3,0.8,0.6c0.2,0.2,0.4,0.5,0.6,0.8h0
		L92.9,3.5L92.9,3.5z M92.9,8.1c0-0.6-0.1-1.1-0.2-1.5s-0.3-0.9-0.6-1.2c-0.3-0.3-0.6-0.6-1-0.8s-0.8-0.3-1.3-0.3
		c-0.4,0-0.8,0.1-1.2,0.2s-0.7,0.4-1,0.7c-0.3,0.3-0.5,0.7-0.7,1.1s-0.2,0.9-0.2,1.5c0,0.6,0,1.1,0.1,1.6s0.3,0.9,0.6,1.3
		c0.3,0.4,0.6,0.7,1,0.9c0.4,0.2,0.9,0.3,1.4,0.3c0.5,0,0.9-0.1,1.3-0.3c0.4-0.2,0.7-0.5,1-0.8s0.5-0.7,0.6-1.2S92.9,8.6,92.9,8.1
		L92.9,8.1z"/>
	<path class="st0" d="M108.4,0h1.1v12.6h-1.1V11h0c-0.2,0.3-0.3,0.6-0.6,0.8c-0.2,0.2-0.5,0.4-0.8,0.6c-0.3,0.1-0.6,0.3-0.9,0.4
		c-0.3,0.1-0.6,0.1-0.9,0.1c-0.7,0-1.3-0.1-1.9-0.4c-0.5-0.2-0.9-0.6-1.3-1s-0.6-0.9-0.7-1.5s-0.2-1.2-0.2-1.9
		c0-0.6,0.1-1.2,0.2-1.8c0.2-0.6,0.4-1.1,0.7-1.5c0.3-0.4,0.8-0.8,1.2-1s1.1-0.4,1.8-0.4c0.6,0,1.2,0.1,1.8,0.4s1.1,0.7,1.4,1.3
		L108.4,0L108.4,0z M108.4,8c0-0.5-0.1-1-0.2-1.5s-0.3-0.9-0.6-1.2c-0.3-0.3-0.6-0.6-1-0.8c-0.4-0.2-0.8-0.3-1.3-0.3
		c-0.6,0-1,0.1-1.4,0.3c-0.4,0.2-0.7,0.5-1,0.9c-0.3,0.4-0.4,0.8-0.6,1.3c-0.1,0.5-0.2,1-0.1,1.6c0,0.6,0.1,1.1,0.2,1.5
		s0.4,0.8,0.7,1.1c0.3,0.3,0.6,0.5,1,0.7s0.8,0.2,1.2,0.2c0.5,0,0.9-0.1,1.3-0.3s0.7-0.5,1-0.8s0.4-0.8,0.6-1.2
		C108.3,9,108.4,8.5,108.4,8z"/>
	<path class="st0" d="M112.7,8.3c0,0.5,0.1,0.9,0.2,1.4s0.3,0.8,0.6,1.1s0.6,0.6,0.9,0.8s0.8,0.3,1.3,0.3c0.7,0,1.3-0.2,1.8-0.5
		c0.5-0.4,0.8-0.9,1-1.5h1.2c-0.1,0.4-0.3,0.8-0.5,1.2s-0.5,0.7-0.8,1c-0.3,0.3-0.7,0.5-1.1,0.6c-0.4,0.1-0.9,0.2-1.5,0.2
		c-0.7,0-1.3-0.1-1.9-0.4c-0.5-0.2-0.9-0.6-1.3-1s-0.6-0.9-0.8-1.5s-0.2-1.2-0.2-1.9s0.1-1.3,0.3-1.9s0.5-1.1,0.8-1.5
		c0.3-0.4,0.8-0.8,1.3-1s1.1-0.4,1.7-0.4c1.2,0,2.2,0.4,2.9,1.3s1.1,2.1,1.1,3.7L112.7,8.3L112.7,8.3z M118.6,7.4
		c0-0.4-0.1-0.9-0.2-1.2s-0.3-0.7-0.5-1s-0.5-0.5-0.9-0.7s-0.8-0.2-1.2-0.2s-0.9,0.1-1.2,0.3c-0.3,0.2-0.7,0.4-0.9,0.7
		s-0.4,0.6-0.6,1s-0.2,0.8-0.3,1.2H118.6L118.6,7.4z"/>
	<path class="st0" d="M122.8,12.5h-1.1v-9h1.1v1.2c0.4-0.4,0.8-0.8,1.3-1.1c0.4-0.3,1-0.4,1.6-0.4c0.6,0,1.1,0.1,1.6,0.3
		s0.9,0.5,1.2,1c0.2,0.3,0.4,0.7,0.4,1s0.1,0.7,0.1,1.1v5.9h-1.1V6.6c0-0.8-0.2-1.4-0.5-1.8s-1-0.6-1.8-0.6c-0.3,0-0.6,0.1-0.9,0.2
		s-0.5,0.2-0.7,0.4s-0.4,0.3-0.6,0.6S123.1,5.7,123,6c-0.1,0.3-0.2,0.6-0.2,0.8s0,0.6,0,0.9L122.8,12.5L122.8,12.5z"/>
	<path class="st0" d="M0.9,33.4V20.9H2v5.4h7.4v-5.4h1.2v12.5H9.4v-6.1H2v6.1H0.9z"/>
	<path class="st0" d="M16.9,33.7c-0.6,0-1.1-0.1-1.6-0.3c-0.5-0.2-0.9-0.5-1.3-0.9c-0.4-0.4-0.7-0.9-0.9-1.5s-0.3-1.3-0.3-2.1
		c0-0.7,0.1-1.3,0.3-1.9c0.2-0.6,0.4-1.1,0.8-1.5c0.4-0.4,0.8-0.8,1.3-1s1.1-0.4,1.8-0.4s1.3,0.1,1.9,0.4s1,0.6,1.3,1
		s0.6,0.9,0.8,1.5s0.2,1.2,0.2,1.9c0,0.7-0.1,1.4-0.3,2c-0.2,0.6-0.5,1.1-0.8,1.5s-0.8,0.7-1.3,1C18.1,33.6,17.5,33.7,16.9,33.7
		L16.9,33.7z M19.9,28.9c0-0.5-0.1-1-0.2-1.5c-0.1-0.5-0.3-0.9-0.5-1.2c-0.2-0.3-0.6-0.6-0.9-0.8c-0.4-0.2-0.9-0.3-1.4-0.3
		s-1,0.1-1.4,0.3c-0.4,0.2-0.7,0.5-0.9,0.9S14.1,27,14,27.5s-0.2,0.9-0.2,1.4c0,0.6,0.1,1.1,0.2,1.5c0.1,0.5,0.3,0.9,0.6,1.2
		c0.3,0.3,0.6,0.6,1,0.8c0.4,0.2,0.8,0.3,1.3,0.3c0.5,0,1-0.1,1.4-0.3c0.4-0.2,0.7-0.5,1-0.9c0.2-0.4,0.4-0.8,0.5-1.2
		C19.9,29.9,19.9,29.4,19.9,28.9L19.9,28.9z"/>
	<path class="st0" d="M24.1,33.4h-1v-9h1v1.7h0c0.3-0.7,0.7-1.2,1.1-1.5c0.5-0.3,1.1-0.4,1.8-0.4v1.1c-0.6,0-1.1,0.1-1.5,0.3
		s-0.7,0.5-0.9,0.8s-0.4,0.7-0.5,1.2s-0.1,0.9-0.1,1.4L24.1,33.4L24.1,33.4z"/>
	<path class="st0" d="M28.6,22.5v-1.5h1.1v1.5H28.6z M28.6,33.4v-9h1v9H28.6z"/>
	<path class="st0" d="M31.7,33.4v-0.9l6-7.2h-5.6v-0.9H39v0.9l-6,7.2h6.2v0.9C39.2,33.4,31.7,33.4,31.7,33.4z"/>
	<path class="st0" d="M44.6,33.7c-0.6,0-1.1-0.1-1.6-0.3c-0.5-0.2-1-0.5-1.3-0.9c-0.4-0.4-0.7-0.9-0.9-1.5s-0.3-1.3-0.3-2.1
		c0-0.7,0.1-1.3,0.3-1.9c0.2-0.6,0.4-1.1,0.8-1.5c0.3-0.4,0.8-0.8,1.3-1s1.1-0.4,1.8-0.4s1.3,0.1,1.8,0.4s1,0.6,1.3,1
		c0.3,0.4,0.6,0.9,0.8,1.5s0.2,1.2,0.2,1.9c0,0.7-0.1,1.4-0.3,2S48,32,47.7,32.4s-0.8,0.7-1.3,1C45.8,33.6,45.3,33.7,44.6,33.7
		L44.6,33.7z M47.7,28.9c0-0.5-0.1-1-0.2-1.5c-0.1-0.5-0.3-0.9-0.5-1.2s-0.6-0.6-0.9-0.8c-0.4-0.2-0.8-0.3-1.4-0.3s-1,0.1-1.4,0.3
		c-0.4,0.2-0.7,0.5-1,0.9s-0.4,0.8-0.5,1.2c-0.1,0.5-0.2,0.9-0.2,1.4c0,0.6,0.1,1.1,0.2,1.5c0.1,0.5,0.3,0.9,0.6,1.2
		c0.3,0.3,0.6,0.6,1,0.8c0.4,0.2,0.8,0.3,1.3,0.3c0.5,0,1-0.1,1.4-0.3c0.4-0.2,0.7-0.5,1-0.9s0.4-0.8,0.5-1.2
		C47.6,29.9,47.7,29.4,47.7,28.9L47.7,28.9z"/>
	<path class="st0" d="M51.8,33.4h-1v-9h1v1.2c0.4-0.4,0.8-0.8,1.3-1.1s1-0.4,1.6-0.4c0.6,0,1.1,0.1,1.5,0.3s0.9,0.5,1.2,1
		c0.2,0.3,0.3,0.7,0.4,1s0.1,0.7,0.1,1.1v5.9h-1v-5.9c0-0.8-0.2-1.4-0.5-1.8s-1-0.6-1.8-0.6c-0.3,0-0.6,0-0.9,0.1s-0.5,0.2-0.7,0.4
		s-0.4,0.4-0.5,0.6c-0.2,0.2-0.3,0.4-0.3,0.7c-0.1,0.3-0.2,0.6-0.2,0.8s0,0.6,0,0.9L51.8,33.4L51.8,33.4z"/>
	<path class="st0" d="M63.6,33.5c-0.1,0-0.3,0.1-0.5,0.1c-0.2,0.1-0.4,0.1-0.7,0.1c-0.5,0-0.9-0.1-1.2-0.4s-0.4-0.7-0.4-1.4v-6.6
		h-1.3v-0.9h1.3v-2.5h1v2.5h1.7v0.9h-1.7v6.2c0,0.2,0,0.4,0,0.6c0,0.2,0,0.3,0.1,0.4c0.1,0.1,0.2,0.2,0.3,0.2s0.3,0.1,0.5,0.1
		c0.1,0,0.3,0,0.4,0s0.3,0,0.4-0.1L63.6,33.5L63.6,33.5z"/>
	<path class="st0" d="M70.8,29.2c0,0.5,0.1,1,0.2,1.4s0.3,0.8,0.6,1.1c0.2,0.3,0.6,0.6,0.9,0.8s0.8,0.3,1.3,0.3
		c0.7,0,1.3-0.2,1.8-0.5c0.5-0.4,0.8-0.9,1-1.5h1.2c-0.1,0.4-0.3,0.8-0.5,1.2s-0.5,0.7-0.8,1c-0.3,0.3-0.7,0.5-1.1,0.6
		c-0.4,0.2-0.9,0.2-1.5,0.2c-0.7,0-1.3-0.1-1.9-0.4c-0.5-0.2-0.9-0.6-1.3-1s-0.6-0.9-0.8-1.5s-0.2-1.2-0.2-1.9s0.1-1.3,0.3-1.9
		s0.5-1.1,0.8-1.5c0.3-0.4,0.8-0.8,1.3-1s1.1-0.4,1.7-0.4c1.2,0,2.2,0.4,2.9,1.3s1.1,2.1,1.1,3.7L70.8,29.2L70.8,29.2z M76.7,28.3
		c0-0.4-0.1-0.9-0.2-1.2s-0.3-0.7-0.5-1s-0.5-0.5-0.9-0.7s-0.8-0.2-1.2-0.2s-0.9,0.1-1.2,0.3c-0.3,0.2-0.7,0.4-0.9,0.7
		s-0.4,0.6-0.6,1s-0.2,0.8-0.3,1.2H76.7L76.7,28.3z"/>
	<path class="st0" d="M80.9,33.4h-1.1v-9h1.1v1.7h0c0.3-0.7,0.7-1.2,1.1-1.5c0.5-0.3,1.1-0.4,1.8-0.4v1.1c-0.6,0-1.1,0.1-1.5,0.3
		s-0.7,0.5-0.9,0.8s-0.4,0.7-0.5,1.2s-0.1,0.9-0.1,1.4L80.9,33.4L80.9,33.4z"/>
	<path class="st0" d="M93.2,32.1l2.4-7.6h1.1l-2.9,9h-1.1l-2-7.6h0l-2,7.6h-1.2l-2.8-9h1.1l2.3,7.7l2.1-7.7h1.2L93.2,32.1L93.2,32.1
		z"/>
	<path class="st0" d="M98.8,29.2c0,0.5,0.1,1,0.2,1.4s0.3,0.8,0.6,1.1c0.2,0.3,0.6,0.6,0.9,0.8s0.8,0.3,1.3,0.3
		c0.7,0,1.3-0.2,1.8-0.5c0.5-0.4,0.8-0.9,1-1.5h1.2c-0.1,0.4-0.3,0.8-0.5,1.2s-0.5,0.7-0.8,1c-0.3,0.3-0.7,0.5-1.1,0.6
		c-0.4,0.2-0.9,0.2-1.5,0.2c-0.7,0-1.3-0.1-1.9-0.4c-0.5-0.2-0.9-0.6-1.3-1s-0.6-0.9-0.8-1.5s-0.2-1.2-0.2-1.9s0.1-1.3,0.3-1.9
		s0.5-1.1,0.8-1.5c0.3-0.4,0.8-0.8,1.3-1s1.1-0.4,1.7-0.4c1.2,0,2.2,0.4,2.9,1.3s1.1,2.1,1.1,3.7L98.8,29.2L98.8,29.2z M104.7,28.3
		c0-0.4-0.1-0.9-0.2-1.2s-0.3-0.7-0.5-1s-0.5-0.5-0.9-0.7s-0.8-0.2-1.2-0.2s-0.9,0.1-1.2,0.3c-0.3,0.2-0.7,0.4-0.9,0.7
		s-0.4,0.6-0.6,1s-0.2,0.8-0.3,1.2H104.7L104.7,28.3z"/>
	<path class="st0" d="M107.7,22.5v-1.5h1.2v1.5H107.7z M141.7,33.5V32h1.2v1.6H141.7z M107.7,33.4v-9h1.1v9H107.7z"/>
	<path class="st0" d="M114.6,33.5c-0.1,0-0.3,0.1-0.5,0.1c-0.2,0.1-0.4,0.1-0.7,0.1c-0.5,0-0.9-0.1-1.2-0.4s-0.4-0.7-0.4-1.4v-6.6
		h-1.3v-0.9h1.3v-2.5h1.1v2.5h1.7v0.9h-1.7v6.2c0,0.2,0,0.4,0,0.6c0,0.2,0.1,0.3,0.1,0.4c0.1,0.1,0.2,0.2,0.3,0.2
		c0.1,0,0.3,0.1,0.5,0.1c0.1,0,0.3,0,0.4,0s0.3,0,0.4-0.1L114.6,33.5L114.6,33.5z"/>
	<path class="st0" d="M116.9,29.2c0,0.5,0.1,1,0.2,1.4s0.3,0.8,0.6,1.1c0.2,0.3,0.6,0.6,0.9,0.8s0.8,0.3,1.3,0.3
		c0.7,0,1.3-0.2,1.8-0.5c0.5-0.4,0.8-0.9,1-1.5h1.2c-0.1,0.4-0.3,0.8-0.5,1.2s-0.5,0.7-0.8,1c-0.3,0.3-0.7,0.5-1.1,0.6
		c-0.4,0.2-0.9,0.2-1.5,0.2c-0.7,0-1.3-0.1-1.9-0.4c-0.5-0.2-0.9-0.6-1.3-1s-0.6-0.9-0.8-1.5s-0.2-1.2-0.2-1.9s0.1-1.3,0.3-1.9
		s0.5-1.1,0.8-1.5c0.3-0.4,0.8-0.8,1.3-1s1.1-0.4,1.7-0.4c1.2,0,2.2,0.4,2.9,1.3s1.1,2.1,1.1,3.7L116.9,29.2L116.9,29.2z
		 M122.8,28.3c0-0.4-0.1-0.9-0.2-1.2s-0.3-0.7-0.5-1s-0.5-0.5-0.9-0.7s-0.8-0.2-1.2-0.2s-0.9,0.1-1.2,0.3c-0.3,0.2-0.7,0.4-0.9,0.7
		s-0.4,0.6-0.6,1s-0.2,0.8-0.3,1.2H122.8L122.8,28.3z"/>
	<path class="st0" d="M127.1,33.4H126v-9h1.1v1.7h0c0.3-0.7,0.7-1.2,1.1-1.5c0.5-0.3,1.1-0.4,1.8-0.4v1.1c-0.6,0-1.1,0.1-1.5,0.3
		s-0.7,0.5-0.9,0.8s-0.4,0.7-0.5,1.2s-0.1,0.9-0.1,1.4L127.1,33.4L127.1,33.4z"/>
	<path class="st0" d="M133.1,33.4h-1.1v-9h1.1v1.2c0.4-0.4,0.9-0.8,1.3-1.1s1-0.4,1.6-0.4c0.6,0,1.1,0.1,1.6,0.3s0.9,0.5,1.2,1
		c0.2,0.3,0.4,0.7,0.4,1s0.1,0.7,0.1,1.1v5.9h-1.1v-5.9c0-0.8-0.2-1.4-0.5-1.8s-1-0.6-1.8-0.6c-0.3,0-0.6,0-0.9,0.1
		s-0.5,0.2-0.7,0.4s-0.4,0.4-0.6,0.6c-0.1,0.2-0.3,0.4-0.4,0.7c-0.1,0.3-0.2,0.6-0.2,0.8s0,0.6,0,0.9L133.1,33.4L133.1,33.4z"/>
</g>
</svg>
