<?xml version="1.0" encoding="UTF-8"?><svg id="Layer_2" xmlns="http://www.w3.org/2000/svg" viewBox="0 0 147.98 147.98"><defs><style>.cls-1{fill:#00944f;}.cls-2{fill:#165647;}.cls-3{fill:#2ba66d;}</style></defs><g id="Layer_1-2"><path class="cls-1" d="m147.98,73.99c0,40.87-33.13,73.99-73.99,73.99S0,114.86,0,73.99,33.13,0,73.99,0s73.99,33.13,73.99,73.99h0Z"/><polygon class="cls-3" points="115.74 115.31 133.33 118.18 123.49 105.55 123.45 105.51 112.53 93.34 116.07 103.73 111.44 109.11 115.74 115.31"/><path class="cls-3" d="m89.71,115.43l8.84-5.73-19.9-14.21-10.77-28.78-8,4.11-27.45-26.73-1.81-4.46-2.36-2.93-4.09,21.74,18.57,7.78-11.38,8.09,43.71,27.87-5,9.77,16.18,24.61h27.25c2.9-1.84,5.67-3.87,8.28-6.08l-32.08-15.04Z"/><path class="cls-2" d="m123.39,105.46l.03.04,9.9,12.69-17.59-2.87-4.3-6.2,4.63-5.37-3.54-10.39-13.97,16.36-8.84,5.73,32.08,15.04c16.02-13.57,26.2-33.84,26.2-56.48,0-1.39-.04-2.78-.12-4.15l-16.49,33.07-7.98,2.55Z"/><path class="cls-2" d="m73.99,147.98c14.53,0,28.08-4.19,39.52-11.43h-27.25l-16.18-24.61,5-9.77-43.71-27.87,11.38-8.09-18.57-7.78,4.09-21.74-13.22,6.77s-8.84,12.12-9.34,12.88c-.2.31-2.53,4.35-5.22,9.05-.33,2.82-.5,5.69-.5,8.6,0,40.87,33.13,73.99,73.99,73.99Z"/></g></svg>