<?xml version="1.0" encoding="UTF-8"?><svg id="Layer_2" xmlns="http://www.w3.org/2000/svg" viewBox="0 0 64.87 27.55"><defs><style>.cls-1{fill:#fff;}</style></defs><g id="Layer_1-2"><path class="cls-1" d="m4.58,26.48v-1.04h-.04c-.24.52-.54.94-.92,1.25-.38.31-.76.54-1.15.66-.5.16-.91.22-1.22.18-.32-.04-.57-.16-.75-.37-.18-.21-.31-.49-.39-.84-.07-.36-.11-.77-.11-1.23v-4.6l1.86-.6v4.22c0,.62.09,1.05.26,1.3.17.25.48.3.93.15.51-.16.87-.45,1.1-.86.23-.41.34-.99.34-1.75v-3.92l1.86-.6v7.47l-1.77.57Z"/><path class="cls-1" d="m9.53,17.4v1.04h.04c.24-.52.54-.94.92-1.26.38-.32.76-.54,1.15-.67.5-.16.91-.22,1.22-.17.32.05.57.17.75.38.18.21.31.49.39.84.07.36.11.77.11,1.23v4.6l-1.86.6v-4.22c0-.62-.09-1.05-.26-1.3s-.48-.3-.93-.15c-.51.16-.87.45-1.1.86-.23.41-.34.99-.34,1.75v3.92l-1.86.6v-7.47l1.77-.57Z"/><path class="cls-1" d="m19.25,14.24v1.37l-1.36.44v3.7c0,.35.05.56.16.64.11.08.31.07.63-.03.1-.03.21-.07.3-.11.1-.04.19-.09.27-.13v1.59c-.16.08-.33.16-.52.23-.19.07-.38.14-.56.2-.29.09-.56.16-.82.2-.26.04-.48.03-.68-.03-.2-.06-.35-.19-.46-.38-.11-.19-.17-.48-.17-.86v-4.41l-1.13.37v-1.37l1.13-.37v-2.24l1.86-.6v2.24l1.36-.44Z"/><path class="cls-1" d="m22.13,18.99c.28.21.68.23,1.2.06.38-.12.7-.33.97-.63.27-.3.44-.57.5-.82l1.64-.53c-.26.98-.66,1.75-1.2,2.31-.54.56-1.2.97-1.96,1.22-.53.17-1.01.23-1.44.19-.43-.05-.79-.2-1.09-.45s-.53-.59-.69-1.02c-.16-.43-.24-.93-.24-1.51s.08-1.11.25-1.64c.17-.54.4-1.03.71-1.48.31-.45.67-.85,1.09-1.19.42-.34.89-.59,1.41-.76.58-.19,1.08-.23,1.51-.12.43.11.78.32,1.05.65.28.33.47.73.6,1.22.12.49.17,1.03.13,1.62l-4.88,1.59c.03.66.18,1.09.46,1.3Zm2.1-4.61c-.22-.2-.56-.22-1.01-.08-.3.1-.54.23-.74.41-.2.18-.35.36-.47.57-.12.2-.2.4-.25.6-.05.2-.08.37-.09.52l3.02-.98c-.09-.49-.24-.84-.46-1.03Z"/><path class="cls-1" d="m29.42,10.93v1.39h.03c.09-.27.2-.52.35-.77.15-.25.32-.47.51-.67.19-.2.4-.38.62-.53.22-.15.45-.26.68-.34.12-.04.26-.06.41-.06v1.91c-.09,0-.19.03-.31.05-.12.03-.24.06-.35.09-.34.11-.63.27-.86.47-.24.2-.43.43-.57.7-.14.26-.25.55-.31.86s-.09.63-.09.97v3.37l-1.86.6v-7.47l1.77-.57Z"/><path class="cls-1" d="m38.57,15.43l-1.2-4.63h-.03s-1.15,5.4-1.15,5.4l-1.92.63-2.15-6.78,1.96-.64,1.24,4.67h.03s1.13-5.45,1.13-5.45l1.81-.59,1.15,4.69h.03s1.24-5.47,1.24-5.47l1.91-.62-2.13,8.17-1.91.62Z"/><path class="cls-1" d="m45.4,11.43c.28.21.68.23,1.2.06.38-.12.7-.33.97-.63s.44-.57.5-.82l1.64-.53c-.26.98-.66,1.75-1.2,2.31-.54.56-1.2.97-1.96,1.22-.53.17-1.01.23-1.44.19-.43-.05-.79-.2-1.09-.45-.3-.25-.53-.59-.69-1.02-.16-.43-.24-.93-.24-1.51s.08-1.11.25-1.64c.17-.54.4-1.03.71-1.48.31-.45.67-.85,1.09-1.19s.89-.59,1.41-.76c.58-.19,1.08-.23,1.51-.12.43.11.78.32,1.05.65.28.33.47.73.6,1.22.12.49.17,1.03.13,1.62l-4.88,1.59c.03.66.18,1.09.46,1.3Zm2.1-4.61c-.22-.2-.56-.22-1.01-.08-.3.1-.54.23-.74.41-.2.17-.35.36-.47.56s-.2.4-.25.6c-.05.2-.08.37-.09.52l3.02-.98c-.09-.49-.24-.84-.47-1.03Z"/><path class="cls-1" d="m57.32,9.89c-.07.41-.23.82-.48,1.23-.24.41-.6.81-1.06,1.19-.46.38-1.08.7-1.86.95-.33.11-.67.17-1.01.19-.34.02-.66-.02-.94-.12-.28-.1-.52-.27-.71-.52-.19-.24-.29-.57-.32-.99l1.85-.6c.09.36.26.57.51.64.25.07.55.05.88-.06.52-.17.91-.47,1.15-.89.24-.42.36-.9.35-1.43v-.98h-.03c-.2.47-.49.85-.86,1.16-.37.31-.76.53-1.17.66-.51.16-.94.21-1.31.13s-.67-.25-.9-.52c-.24-.27-.41-.61-.52-1.03-.11-.42-.16-.89-.16-1.4,0-.48.06-.97.19-1.46.13-.49.31-.94.56-1.37.24-.42.55-.79.91-1.11.36-.32.78-.56,1.25-.71.45-.14.84-.18,1.17-.11s.62.29.84.65h.03v-1.01l1.77-.57v7c0,.3-.04.65-.11,1.06Zm-2.55-1.66c.2-.18.37-.39.5-.63.13-.23.23-.49.29-.75.07-.27.1-.54.1-.81,0-.31-.03-.59-.08-.85-.05-.26-.14-.47-.26-.64-.12-.17-.28-.29-.48-.35-.2-.06-.45-.04-.76.06-.26.08-.49.22-.67.39-.19.18-.34.38-.47.62s-.22.49-.27.77c-.06.27-.09.55-.09.83s.02.53.07.78c.05.25.13.46.25.63.12.17.27.3.46.37.19.07.43.06.72-.03.26-.08.49-.22.69-.4Z"/><path class="cls-1" d="m60.49,6.46c.08.13.19.23.32.29.13.06.28.08.45.08.17,0,.35-.04.53-.1.13-.04.27-.1.41-.18.14-.08.27-.18.39-.29.12-.11.22-.24.29-.39.08-.15.12-.31.12-.49,0-.31-.19-.48-.56-.51-.37-.03-.89-.02-1.55.04-.27.02-.53.03-.79.02-.26,0-.49-.05-.69-.14-.2-.08-.36-.22-.48-.41-.12-.19-.18-.44-.18-.77,0-.48.08-.9.26-1.27s.39-.68.67-.95c.28-.27.59-.5.94-.68s.71-.34,1.07-.46c.37-.12.72-.2,1.07-.23.34-.04.65,0,.92.09.27.1.5.27.67.51.18.25.29.59.32,1.05l-1.77.57c-.03-.39-.16-.61-.41-.67-.24-.06-.53-.04-.86.07-.1.03-.22.08-.34.13-.12.05-.23.12-.33.2-.1.08-.19.18-.26.29-.07.12-.1.25-.1.4,0,.18.06.31.18.39.12.08.28.12.48.13.2,0,.42,0,.67-.02.25-.02.51-.05.77-.06.27-.02.53-.02.79-.01.26.01.49.07.69.16.2.09.36.24.48.44.12.2.18.47.18.81,0,.49-.09.93-.27,1.32s-.41.73-.7,1.03c-.29.3-.62.55-.99.75-.37.2-.75.37-1.13.49-.39.13-.78.21-1.15.24-.38.04-.71,0-1-.11-.29-.11-.53-.3-.72-.57s-.29-.65-.31-1.15l1.77-.57c0,.22.04.4.12.53Z"/></g></svg>