<?xml version="1.0" encoding="UTF-8"?><svg id="Layer_2" xmlns="http://www.w3.org/2000/svg" viewBox="0 0 159.35 78.15"><defs><style>.cls-1{fill:#fff;}</style></defs><g id="Layer_1-2"><path class="cls-1" d="m45.96,42.48c1.99,0,3.27-1.78,3.27-3.69,0-1.7-.64-2.7-2.13-2.7-1.7,0-3.13,1.63-3.13,3.91,0,1.28.57,2.49,1.99,2.49Z"/><path class="cls-1" d="m157.71,24.3c-.64,1.56-2.34,4.83-5.82,4.83-2.91,0-3.69-2.49-3.91-5.26,6.61-.43,11.01-3.98,11.01-8.1,0-3.91-2.63-5.47-5.82-5.47-4.05,0-9.87,4.4-10.02,13.21-1.14,4.05-4.9,11.08-8.6,11.08-2.63,0-3.2-3.2-3.2-8.17v-.14c6.32-3.13,11.08-10.3,11.08-18.75,0-4.26-2.2-7.53-5.47-7.53-4.97,0-10.09,11.65-10.23,25.36-.43.07-.85.07-1.35.07-4.12,0-7.39-3.2-9.31-6.18l-3.27,3.48c.57.78,1.85,1.92,3.55,2.91.92.92,1.92,3.13,1.92,6.32,0,4.76-2.56,9.95-5.68,9.95-1.92,0-2.91-1.56-2.91-7.18,0-3.76,1.85-26.5,1.85-26.5l-4.41,1.35c-.36,4.69-1.85,20.89-1.85,24.72,0,.78,0,1.49.07,2.13-.99,4.26-5.33,10.23-7.1,10.23-.64,0-.78-.5-.78-2.13,0-4.05,1.21-16.48,1.21-16.48l-4.41,1.42s-.07,1.14-.21,2.56c-.64-.92-1.7-1.63-3.41-1.63-4.97,0-10.51,6.54-10.51,15.27,0,.64.07,1.28.14,1.78-1.49,3.69-4.19,7.39-6.04,7.39-.57,0-.71-.43-.71-.92,0-2.84,1.28-7.81,1.28-12.22,0-3.05-1.14-4.97-4.19-4.97-3.98,0-7.6,4.69-9.31,13.71l.57-10.16-4.4,1.49c-1.14,7.67-6.89,21.1-9.45,21.1-.43,0-.43-.5-.43-1.42,0,0,.43-9.16.92-16.84l-4.4,1.42c-.14,2.34-.35,4.55-.5,6.54-1.14,6.61-6.25,14.28-7.6,14.28-.36,0-.43-.21-.43-.99,0-2.7.99-17.12.99-17.12l-4.4,1.42-.21,3.13c-.5-1.14-1.49-2.27-3.48-2.27-4.62,0-10.16,5.83-10.16,14.56,0,.5,0,.92.07,1.28-1.78,3.41-5.19,8.17-7.96,8.17-1.85,0-2.06-1.78-2.06-5.11,0-2.13.21-5.61.5-9.31l7.32-2.42.14-2.98-7.18,2.34c.21-2.56.5-5.19.78-7.53l-4.55,1.42c-.36,2.27-.64,4.97-.85,7.67l-4.4,1.42-.14,2.98,4.26-1.42c-.28,3.84-.43,7.25-.43,8.81,0,4.4,1.14,7.25,4.55,7.25,5.4,0,8.95-5.47,10.59-8.67.85,2.42,2.63,3.62,4.83,3.62,3.69,0,6.46-3.62,7.46-7.67,0,3.2.85,4.48,2.91,4.48,3.55,0,7.39-5.68,9.02-10.02v.99c0,3.05.99,4.9,3.34,4.9,5.33,0,9.38-11.51,10.44-15.27l-.71,11.86,4.4-1.42.07-1.07c1.21-11.86,6.39-20.6,8.6-20.6.64,0,.85.78.85,1.92,0,2.2-1.28,9.09-1.28,12.22,0,2.13.57,4.26,3.34,4.26,3.27,0,6.75-3.05,8.81-7.53.99,1.78,2.56,2.7,4.55,2.7,3.91,0,6.47-3.55,7.6-7.46.14,2.42.64,4.05,3.13,4.05,5.11,0,9.09-7.74,9.66-9.66.92,2.98,2.91,4.55,5.9,4.55,5.83,0,11.01-6.18,11.01-12.79,0-1.56-.5-2.84-1.14-3.84.85.21,1.7.28,2.63.28.78,0,1.63-.07,2.42-.21.43,6.82,3.41,9.38,6.75,9.38,4.55,0,8.31-4.69,10.16-9.95,1.07,2.84,3.69,4.4,6.96,4.4,4.55,0,8.67-3.05,8.67-5.4,0-.99-.92-1.92-1.63-1.92Zm-21.24-22.24c1.49,0,1.7,3.69,1.7,5.68,0,5.19-1.49,12.79-6.75,16.05.36-12.01,3.41-21.74,5.04-21.74ZM31.76,56.76c-.57,6.32-3.34,13.43-6.32,13.43-1.92,0-2.49-2.42-2.49-5.04,0-6.47,3.34-11.72,5.9-11.72,1.92,0,2.63,1.49,2.98,2.56l-.07.78Zm62.02-21.03c-.43,6.89-3.48,14.21-6.39,14.21-2.06,0-2.63-2.27-2.63-5.11,0-5.97,3.2-12.08,5.97-12.08,1.78,0,2.63,1.42,3.05,2.56v.43Zm54.13-13.99c0-4.12,2.06-8.95,4.76-8.95,1.56,0,2.06,1.28,2.06,2.84,0,3.55-2.2,5.9-6.82,6.39v-.28Z"/></g></svg>