<?xml version="1.0" encoding="UTF-8"?><svg id="Layer_2" xmlns="http://www.w3.org/2000/svg" viewBox="0 0 108.2 63.44"><defs><style>.cls-1{fill:#fff;}</style></defs><g id="Layer_1-2"><path class="cls-1" d="m74.88,9.38c1.99,0,3.27-1.78,3.27-3.69,0-1.7-.64-2.7-2.13-2.7-1.7,0-3.13,1.63-3.13,3.91,0,1.28.57,2.49,1.99,2.49Z"/><path class="cls-1" d="m104.72,4.76l-3.27.99c-.71,3.77-3.98,11.51-7.32,16.41v-.78c0-3.84-3.91-7.53-3.41-12.43l-2.63.78c-1.49,5.68-8.45,19.61-10.8,19.61-.64,0-.71-.28-.71-2.13,0,0,.5-9.09.85-14.28l-4.47,1.35s-2.2,6.11-4.33,6.11c-2.27,0-2.77-2.34-3.05-5.26l-4.12,1.99c0,1.7.64,3.41,1.85,4.55-.36,8.24-2.91,13.64-4.83,13.64-2.27,0-.99-12.15-.21-16.41l-4.62,1.35c-.21,1.14-.36,2.27-.5,3.2-.85,6.68-3.77,15.27-5.61,15.27-.99,0-1.21-1.49-1.21-3.98,0-3.84.5-8.1,1.14-12.57l-4.62,1.35c-.07.57-.21,1.14-.28,1.71-3.05,1.92-8.81,5.54-14.42,9.09-5.61-4.62-13.78-8.53-13.78-13.36,0-6.61,17.41-16.69,27.28-16.69,2.77,0,4.83.57,4.83,2.27,0,2.27-3.98,7.18-15.49,12.29l2.49,3.27s15.91-5.68,15.91-16.2c0-2.98-2.34-5.9-8.24-5.9C29.55,0,10.73,8.52,10.73,20.96c0,6.54,8.6,10.87,14.35,15.34-5.68,3.55-10.66,6.75-12.15,7.74C6.54,48.38,0,52.85,0,57.47c0,3.55,3.77,5.97,8.67,5.97,10.59,0,24.79-10.66,24.79-20.89,0-2.42-1.42-4.62-3.48-6.61,4.97-3.13,9.66-6.11,12.22-7.67-.21,1.78-.28,3.27-.28,4.55,0,7.25,2.27,8.52,4.19,8.52,3.2,0,5.54-3.98,6.89-8.52.78,4.26,2.91,5.11,4.48,5.11,4.33,0,8.52-8.74,9.24-14.85h.21c2.56,0,4.62-2.34,5.75-4.48-.36,4.12-.57,6.96-.57,9.09,0,3.55,1.07,4.9,3.13,4.9,5.33,0,10.66-12.43,13.07-18.54.21,2.2,1.07,4.83,1.07,7.74,0,2.27-.64,4.33-2.49,4.33-1.14,0-2.13-.92-2.34-1.21-.99,2.06.78,3.69,3.13,3.69,1.35,0,2.63-.36,3.69-1.07,4.83-2.98,9.02-13.14,10.59-18.04.36,3.13,1.56,5.83,1.56,8.81,0,2.27-1.07,3.48-2.56,3.48-.99,0-1.7-.64-2.13-1.07-.85,2.2.5,3.69,2.91,3.69,3.55,0,6.47-2.56,6.47-6.96,0-5.11-4.4-7.6-3.48-12.72ZM30.19,43.26c0,7.25-13,15.27-20.82,15.27-2.98,0-5.19-.92-5.19-3.05,0-2.49,4.97-5.9,7.74-7.81,2.13-1.49,8.53-5.61,15.06-9.8,1.92,1.71,3.2,3.48,3.2,5.4Z"/></g></svg>