<?xml version="1.0" encoding="utf-8"?>
<!-- Generator: Adobe Illustrator 26.2.1, SVG Export Plug-In . SVG Version: 6.00 Build 0)  -->
<svg version="1.1" id="Layer_1" xmlns="http://www.w3.org/2000/svg" xmlns:xlink="http://www.w3.org/1999/xlink" x="0px" y="0px"
	 viewBox="0 0 353.9 264.7" style="enable-background:new 0 0 353.9 264.7;" xml:space="preserve">
<style type="text/css">
	.st0{fill:#FFFFFF;}
</style>
<g>
	<path class="st0" d="M177,89.8c-31.5,0-58.9,17.1-73.6,42.6c14.7,25.4,42.1,42.6,73.6,42.6s58.9-17.1,73.6-42.6
		C235.8,107,208.5,89.8,177,89.8z M177.1,159.5c-15,0-27.1-12.1-27.1-27.1c0-15,12.1-27.1,27.1-27.1c8.3,0,15.7,3.7,20.6,9.5
		L180,129.2l12.7,11l11.4-5.8C203,148.5,191.3,159.5,177.1,159.5z"/>
	<polygon class="st0" points="250.6,132.3 250.6,132.4 250.6,132.4 	"/>
</g>
</svg>
