<?xml version="1.0" encoding="utf-8"?>
<!-- Generator: Adobe Illustrator 26.2.1, SVG Export Plug-In . SVG Version: 6.00 Build 0)  -->
<svg version="1.1" id="Layer_1" xmlns="http://www.w3.org/2000/svg" xmlns:xlink="http://www.w3.org/1999/xlink" x="0px" y="0px"
	 viewBox="0 0 1179.3 741.5" style="enable-background:new 0 0 1179.3 741.5;" xml:space="preserve">
<style type="text/css">
	.st0{fill:#FFFFFF;}
	.st1{fill:#8795A6;}
</style>
<path class="st0" d="M593.9,89.8c-209.9,0-392.5,114-490.5,283.9c98,169.3,280.6,283.9,490.5,283.9s392.5-114,490.5-283.9
	C985.7,204.4,803.8,89.8,593.9,89.8z"/>
<g>
	<path class="st1" d="M594.5,554.3c-100,0-180.6-80.6-180.6-180.6s80.6-180.6,180.6-180.6c55.3,0,104.6,24.7,137.3,63.3l-118,96
		l84.6,73.3l76-38.7C765.8,481,687.8,554.3,594.5,554.3z"/>
	<polygon class="st1" points="1084.3,373 1084.3,373.7 1084.3,373.7 	"/>
</g>
</svg>
