<svg xmlns="http://www.w3.org/2000/svg" viewBox="0 0 599.92 61.8"><defs><style>.cls-1{fill:#010101;}</style></defs><g id="Layer_2" data-name="Layer 2"><g id="layer"><path class="cls-1" d="M500.2,14.43a59.14,59.14,0,0,1,6.3,7.6c7.5,10.6,12.4,23.8,14.2,38.2H512c-2.2-16.3-8.8-30.3-17.8-39.6a50.11,50.11,0,0,1,6-6.2m-10.7,12.4a52.59,52.59,0,0,0-4.4,8.1c5.2,6.5,9,15.3,10.8,25.3h8.8a67.61,67.61,0,0,0-11.2-28.61c-1.3-1.69-2.6-3.29-4-4.79m-9.8,33.4h8.8A52.75,52.75,0,0,0,482,43.62a56.56,56.56,0,0,0-2.3,16.61M575,10.83c-1.1-.8-2.3-1.6-3.5-2.4-.5.6-1.1,1.2-1.6,1.8A86.32,86.32,0,0,0,550.8,47a127.34,127.34,0,0,0-5.4-19.7,95.41,95.41,0,0,1,15.4-24.2c-1.4-.5-2.8-1-4.3-1.4A95.06,95.06,0,0,0,543.3,22a100.76,100.76,0,0,0-10.6-19.1C532,2,531.3,1,530.6.12a70,70,0,0,0-9.3,2.2c7.2,8.4,13.1,19.2,17.2,31.4a103.83,103.83,0,0,0-3.8,13.9,95,95,0,0,0-15.1-35.1,68.06,68.06,0,0,0-5.7-7.1,53.47,53.47,0,0,0-7.7,4.5c11.4,11.7,19.5,29.7,21.8,50.4h9A106.87,106.87,0,0,1,540.6,41a131.72,131.72,0,0,1,3.4,19.3h8.7c2.6-22.7,12.1-38,20.4-47.2a14.92,14.92,0,0,1,1.9-2.29m11.4,10.79c-.9-1.1-1.8-2.2-2.8-3.2-9.3,9.6-17,23.5-19.5,41.8h4.2c2.5-17.7,10.1-29.8,16.7-37.1.5-.59.9-1,1.4-1.5m-6.5,38.61h4.2a56.47,56.47,0,0,1,10.8-24.61c-.6-1.39-1.3-2.79-2-4.2a60.07,60.07,0,0,0-13,28.81m19.3-9.9a53.91,53.91,0,0,0-3.5,9.79h4.2a45.7,45.7,0,0,0-.7-9.79M219.5,1.73h-13v58.5h35.7V48.73H219.5v-47Zm94.5,0h-4.7v58.5h31.1v-4.3H314Zm31.8,58.5h4.7V1.73h-4.7Zm80.7-4.3V32.33H452V28.12H426.4V5.92H454V1.62H421.8v58.5h33.1V55.83H426.5Zm-20.4,0h-1L371.6,1.73h-8.5v58.5h4.7V6h1.1l33.5,54.21h8.3V1.73H406v54.2ZM58.7,48.62h-1L48.2,3.33H34.7L26.2,48.62H24.9L13.3,1.73H0l14.3,58.5H34.2l7.2-35.61,7.7,35.61H69.4L82.1,1.73H68.7Zm226.9-9.89a26.83,26.83,0,0,0,0-16.11,14.32,14.32,0,0,0-9-8.79,23.69,23.69,0,0,0-7.4-1.1h-8.7V49h8.7a21.67,21.67,0,0,0,7.4-1.2,15.26,15.26,0,0,0,9-9.09m6.9-28.8c5.3,5.3,7.8,12.5,7.8,20a32.34,32.34,0,0,1-1.9,12.3,28.18,28.18,0,0,1-15.7,15.89,35.86,35.86,0,0,1-13.7,2.4H247.5V1.23H269c9.3,0,17.4,2.6,23.5,8.7M113.3,49.83c10.9,0,17.3-8.71,17.3-18.9,0-12.2-7.7-18.9-17.3-18.9C101.9,12,96,20.43,96,30.93c-.1,10.19,6.3,18.9,17.3,18.9M126.6,2.62a27.72,27.72,0,0,1,9.7,6.9,30.82,30.82,0,0,1,7.8,22.21c-.1,11.2-6.8,22.5-17.2,27.29-7.4,3.71-19.9,3.71-27.3,0-10.5-4.79-17.1-16.1-17.2-27.29a33.36,33.36,0,0,1,1.9-12.5A29.11,29.11,0,0,1,99.8,2.62c7.4-3.5,19.5-3.5,26.8,0m55.8,24.11a10.6,10.6,0,0,0,0-9.8,8.72,8.72,0,0,0-3.3-3.3c-1.4-.8-3-.8-4.9-.8H163.8v18.4h10.4c3.6-.11,6.5-1.5,8.2-4.5m11.8,6.2a17.42,17.42,0,0,1-8,6.3L201,60.12H185.9L173.6,42h-9.8v18.1h-13V1.23h22.7c8.4.1,16.2,2.1,20.7,8.79a19.43,19.43,0,0,1,2.9,10.9c.2,4.41-.7,9-2.9,12"/></g></g></svg>